<?xml version="1.0" encoding="UTF-8"?>
<svg id="Layer_1" data-name="Layer 1" xmlns="http://www.w3.org/2000/svg" viewBox="0 0 1920 1080">
  <defs>
    <style>
      .cls-1 {
        fill: none;
        stroke: #1746A2;
        stroke-miterlimit: 10;
      }
    </style>
  </defs>
  <path class="cls-1" d="M618.18,904.92l16.33,14.17,38.95-44.9c-5.58-4.55-11.05-9.25-16.41-14.09l-38.88,44.81Z"/>
  <g>
    <ellipse class="cls-1" cx="949.82" cy="538.46" rx="67.33" ry="67.07"/>
    <ellipse class="cls-1" cx="949.64" cy="538.46" rx="22.31" ry="22.22"/>
    <path class="cls-1" d="M827.26,121.56l90.91,88.9c87.31-8.42,173.15,18.65,239.56,72.07l69.02-79.55c-108.3-88.54-256.89-123.14-399.5-81.42Z"/>
    <path class="cls-1" d="M1261.92,429.38c39.51,112.18,14.45,231.32-55.71,317.24l79.46,68.94c94.17-113.48,128.12-271.85,75.63-420.91-24.85-70.56-66.19-130.62-118.13-177.58l-68.98,79.5c38.48,35.34,69.2,80.17,87.73,132.8Z"/>
    <path class="cls-1" d="M1059.3,849.36c-112.13,39.18-231.16,14.59-317.33-54.62l-68.93,79.45c113.82,92.93,272.11,126.23,421.13,74.15,70.42-24.61,130.47-65.42,177.49-116.73l-79.48-68.96c-35.4,38.04-80.31,68.33-132.87,86.7Z"/>
    <path class="cls-1" d="M637.69,647.52c-15.7-44.58-21.12-90.24-17.66-134.5l-90.88-88.87c-22.57,82.13-21.27,171.67,9.17,258.1,24.88,70.66,66.25,130.88,118.3,177.86l68.93-79.45c-38.58-35.38-69.29-80.41-87.86-133.14Z"/>
    <path class="cls-1" d="M951.19,553.59l-16.33-14.17-209.3,241.24c5.32,4.88,10.8,9.58,16.41,14.09l209.23-241.15Z"/>
    <path class="cls-1" d="M1174.18,296.58c-5.32-4.89-10.83-9.53-16.45-14.05l-208.91,240.79,16.33,14.17,209.02-240.91Z"/>
    <path class="cls-1" d="M1282.28,171.99l-16.33-14.17-39.19,45.16c5.58,4.56,11.05,9.25,16.4,14.09l39.12-45.09Z"/>
    <path class="cls-1" d="M1271.64,831.62l50.35,43.69,13.97-16.1-50.31-43.65c-4.53,5.46-9.21,10.81-14.02,16.06Z"/>
    <path class="cls-1" d="M951.19,553.59l240.97,209.07c4.85-5.21,9.55-10.55,14.04-16.04l-241.04-209.13-13.97,16.1Z"/>
    <path class="cls-1" d="M948.83,523.32l-95.97-83.26,74.47-85.84-194.86-169.07c-47.41-41.13-119.18-36.04-160.31,11.36h0s-11.74,13.53-11.74,13.53c-41.13,47.41-36.04,119.18,11.36,160.31l194.86,169.07,72.24-83.26,95.97,83.26,13.97-16.1Z"/>
    <path class="cls-1" d="M739.12,440.24l-140.58-121.5,17.21-19.76,110.26,16.54c25.54,3.84,47.41,8.53,67.6,14.31l.15-.6c-20.22-14.56-37.69-28.93-59.59-47.85l-58.82-50.84,14.86-17.06,140.58,121.5-15.94,18.31-110.1-17.14c-24.16-3.74-48.37-8.26-69.76-14.35l-.34,.8c18.63,14.28,35.89,28.47,59.25,48.66l60.07,51.92-14.86,17.06Z"/>
  </g>
</svg>