<?xml version="1.0" encoding="UTF-8"?>
<svg id="Layer_1" data-name="Layer 1" xmlns="http://www.w3.org/2000/svg" viewBox="0 0 1920 1080">
  <defs>
    <style>
      .cls-1 {
        fill: #fff7e9;
      }

      .cls-2 {
        fill: #ff731d;
      }
    </style>
  </defs>
  <rect class="cls-2" width="1920" height="1080"/>
  <path class="cls-1" d="M581.98-49.33c105.58,20.93,215.42,83.65,247.2,169.31,31.84,86.22-14.44,194.83-90.29,265.33-76.45,71.12-182.58,103.03-289.13,163.32-106.54,60.29-212.84,148.89-301.03,143.42-88.25-6.02-158.34-105.57-211.94-198.46-53.6-92.89-91.36-179.06-87.05-266.17C-145.25,140.8-98.91,52.18-21.51,9.86,55.83-33.01,163.54-30.08,268.71-39.12c104.52-8.97,207.09-30.52,313.27-10.21Z"/>
  <path class="cls-1" d="M910.44,644.55c-9.15-.34-19.21-4.13-23.02-10.9-3.83-6.81-1.4-16.55,4.02-23.49,5.46-7,13.95-11.1,22.08-17.59,8.14-6.49,15.87-15.35,23.35-16.08,7.49-.68,14.71,6.74,20.46,13.82,5.75,7.08,10.07,13.81,10.88,21.18,.74,7.34-1.96,15.4-7.89,19.99-5.92,4.64-15,5.83-23.71,8-8.65,2.15-16.98,5.34-26.16,5.06Z"/>
</svg>