<?xml version="1.0" encoding="UTF-8"?>
<svg id="Layer_1" data-name="Layer 1" xmlns="http://www.w3.org/2000/svg" viewBox="0 0 1276.36 312.24">
  <defs>
    <style>
      .cls-1 {
        fill: #0f172a;
      }

      .cls-2 {
        fill: #1746a2;
      }

      .cls-3 {
        font-family: Roboto-Regular, Roboto;
        font-size: 100px;
      }

      .cls-3, .cls-4 {
        fill: #ff731d;
      }
    </style>
  </defs>
  <g>
    <g>
      <path class="cls-2" d="M402.38,303.5c-37.22,0-73.15-15.58-98.57-42.73-32.83-35.07-44.45-84.54-30.98-130.38l20.88,22.3c-4.7,33.13,5.65,66.02,28.54,90.47,20.67,22.08,49.88,34.74,80.13,34.74,27.95,0,54.58-10.53,74.99-29.64,44.17-41.36,46.46-110.95,5.1-155.13-20.67-22.07-49.88-34.73-80.13-34.73-1.67,0-3.35,.04-5.03,.11l-21.05-22.48c8.57-1.68,17.31-2.53,26.07-2.53,37.22,0,73.14,15.57,98.56,42.72,50.88,54.34,48.07,139.94-6.27,190.82-25.11,23.51-57.86,36.46-92.23,36.46h0Z"/>
      <path class="cls-1" d="M402.34,37.01c17.82,0,35.13,3.51,51.46,10.44,16.9,7.17,31.89,17.66,44.54,31.17,24.01,25.64,36.59,59.09,35.44,94.2-1.15,35.11-15.91,67.66-41.55,91.67-24.46,22.9-56.37,35.51-89.85,35.51-17.82,0-35.14-3.51-51.47-10.44-16.9-7.17-31.89-17.66-44.55-31.18-30.56-32.63-42.25-78.07-31.79-121l15.44,16.49c-4.28,33.62,6.44,66.86,29.68,91.68,21.33,22.78,51.47,35.84,82.69,35.84,28.84,0,56.32-10.86,77.38-30.58,22.08-20.68,34.79-48.71,35.78-78.95,.99-30.23-9.85-59.05-30.52-81.13-21.33-22.78-51.47-35.84-82.69-35.84-1.18,0-2.37,.02-3.56,.06l-15.51-16.57c6.31-.92,12.68-1.38,19.07-1.38m0-7c-11.02,0-22.04,1.31-32.83,3.93l26.37,28.16c2.15-.13,4.31-.2,6.47-.2,28.37,0,56.66,11.29,77.58,33.63,40.11,42.83,37.9,110.07-4.93,150.18-20.49,19.19-46.58,28.69-72.6,28.69-28.37,0-56.66-11.29-77.58-33.63-23.29-24.88-32.31-57.99-27.39-89.23l-26.12-27.9c-16,46.88-6.27,100.84,29.96,139.53,27.26,29.12,64.15,43.84,101.13,43.84,33.93,0,67.92-12.38,94.64-37.4,55.83-52.28,58.71-139.93,6.43-195.76-27.26-29.12-64.15-43.83-101.12-43.83h0Z"/>
    </g>
    <g>
      <g>
        <path class="cls-4" d="M401.23,190.27c-6.31,0-12.23-2.79-16.23-7.66-7.36-8.94-6.07-22.2,2.87-29.56,3.75-3.09,8.48-4.78,13.33-4.78,6.31,0,12.23,2.79,16.23,7.66,3.56,4.33,5.23,9.79,4.69,15.37-.54,5.58-3.23,10.62-7.56,14.18-3.75,3.09-8.48,4.78-13.33,4.78Z"/>
        <path class="cls-1" d="M401.2,152.27h0c5.11,0,9.9,2.26,13.14,6.2,5.96,7.24,4.91,17.97-2.33,23.93-3.08,2.53-6.81,3.87-10.79,3.87-5.11,0-9.9-2.26-13.14-6.2-2.89-3.51-4.23-7.93-3.79-12.45,.44-4.52,2.61-8.6,6.12-11.48,3.08-2.53,6.81-3.87,10.79-3.87m0-8c-5.59,0-11.22,1.87-15.87,5.7-10.66,8.77-12.19,24.53-3.42,35.19,4.94,6.01,12.1,9.12,19.32,9.12,5.59,0,11.22-1.87,15.87-5.7,10.66-8.77,12.19-24.53,3.42-35.19-4.94-6.01-12.1-9.12-19.32-9.12h0Z"/>
      </g>
      <rect class="cls-1" x="260.62" y="162.86" width="282" height="12" transform="translate(-6.96 320.11) rotate(-43.12)"/>
      <rect class="cls-1" x="395.62" y="27.86" width="12" height="282" transform="translate(-6.96 320.11) rotate(-43.12)"/>
    </g>
    <g>
      <g>
        <path class="cls-2" d="M278.01,98.62c-16.21-17.31-15.31-44.57,2-60.78,8-7.49,18.43-11.61,29.38-11.61,12.03,0,23.18,4.83,31.4,13.61l51.95,55.48-62.78,58.78-51.95-55.48Z"/>
        <path class="cls-1" d="M309.39,23.23v6c11.19,0,21.56,4.5,29.21,12.66l49.9,53.29-58.4,54.68-49.9-53.29c-15.08-16.1-14.24-41.46,1.86-56.54,7.44-6.97,17.15-10.8,27.33-10.8v-6m0,0c-11.27,0-22.56,4.11-31.43,12.42h0c-18.54,17.36-19.5,46.47-2.14,65.02l54,57.67,67.16-62.88-54-57.67c-9.06-9.67-21.31-14.56-33.59-14.56h0Z"/>
      </g>
      <text class="cls-3" transform="translate(326.69 139.73) rotate(-43.12)"><tspan x="0" y="0">N</tspan></text>
    </g>
  </g>
  <g>
    <path class="cls-1" d="M4.5,307.24V6.23H46.93l96.46,152.29c22.33,35.28,39.75,66.99,54.04,97.8l.89-.45c-3.57-40.19-4.47-76.81-4.47-123.71V6.23h36.62V307.24h-39.3L95.6,154.5c-20.99-33.49-41.09-67.88-56.27-100.48l-1.34,.45c2.23,37.96,3.13,74.13,3.13,124.15v128.62H4.5Z"/>
    <path class="cls-1" d="M582.38,10.25c19.65-4.02,47.79-6.25,74.58-6.25,41.53,0,68.33,7.59,87.09,24.56,15.18,13.4,23.67,33.94,23.67,57.16,0,39.75-25.01,66.1-56.72,76.81v1.34c23.22,8.04,37.07,29.48,44.21,60.74,9.83,41.98,16.97,71.01,23.22,82.62h-40.19c-4.91-8.49-11.61-34.39-20.1-71.9-8.93-41.53-25.01-57.16-60.29-58.5h-36.62v130.41h-38.85V10.25Zm38.85,137.1h39.75c41.53,0,67.88-22.78,67.88-57.16,0-38.85-28.14-55.82-69.22-56.27-18.76,0-32.15,1.79-38.41,3.57v109.86Z"/>
    <path class="cls-1" d="M883.82,39.28h-91.55V6.23h222.85V39.28h-92V307.24h-39.3V39.28Z"/>
    <path class="cls-1" d="M1087.47,6.23v125.94h145.59V6.23h39.3V307.24h-39.3V166.11h-145.59v141.12h-38.85V6.23h38.85Z"/>
  </g>
</svg>